<?xml version="1.0" encoding="utf-8"?>
<!-- Generator: Adobe Illustrator 27.8.1, SVG Export Plug-In . SVG Version: 6.00 Build 0)  -->
<svg version="1.1" xmlns="http://www.w3.org/2000/svg" xmlns:xlink="http://www.w3.org/1999/xlink" x="0px" y="0px"
	 viewBox="0 0 400.6 210.3" style="enable-background:new 0 0 400.6 210.3;" xml:space="preserve">
<style type="text/css">
	.st0{fill:#FFFFFF;}
	.st1{fill:#ED1C24;}
	.st2{fill:#010101;}
	.st3{font-family:'MyriadPro-Regular';}
	.st4{font-size:37.4428px;}
</style>
<g id="Warning_Label_00000034068704811920356780000007318081435189569467_">
	<g id="Warning_Label">
		<path d="M368.1,77.5H32.5c-4.6,0-8.4-3.8-8.4-8.4V32.5c0-4.6,3.8-8.4,8.4-8.4h335.6c4.6,0,8.4,3.8,8.4,8.4v36.7
			C376.5,73.8,372.7,77.5,368.1,77.5z"/>
		<g>
			<path class="st0" d="M199.2,72.7c-6.4,0-13.9-0.1-21.5-0.4c-6.6-0.2-13.2-0.5-19.8-1c-3-0.2-6.1-0.4-9.1-0.7
				c-3.5-0.4-7-0.7-10.5-1.1c-4.6-0.5-9.3-1.1-13.9-1.8c-3.6-0.6-7.1-1.1-10.6-1.9c-5.8-1.3-11.6-2.5-17.1-4.6
				c-2.2-0.8-4.4-1.8-6.5-2.9c-1.7-0.9-3.1-2.1-4.5-3.3c-2.4-2.2-2.3-6.2-0.1-8.4c1.7-1.6,3.6-2.9,5.8-4c3.7-1.8,7.6-3.2,11.7-4.3
				c2.3-0.6,4.7-1.2,7-1.7c7.8-1.8,15.7-3,23.7-4c3.3-0.4,6.7-0.7,10-1.1c6.4-0.8,12.9-1.2,19.3-1.6c16-1,32.1-1.2,48.2-1
				c4.9,0.1,9.8,0.2,14.7,0.4c5.4,0.2,10.8,0.5,16.1,0.9c4.2,0.3,8.4,0.6,12.6,1c2.9,0.3,5.8,0.6,8.6,1c4.9,0.6,9.7,1.2,14.5,2
				c3.4,0.6,6.9,1.1,10.2,1.9c5.4,1.3,10.9,2.5,16.1,4.4c3.5,1.3,6.8,2.8,9.5,5.1c0.7,0.6,1.3,1.2,1.9,1.9c0.6,0.8,1,1.8,1,2.8
				c0,0.2,0,0.5,0,0.7c0.2,1.7-0.7,3-2,4.3c-1.6,1.5-3.5,2.8-5.6,3.8c-3.8,1.9-7.9,3.2-12.1,4.4c-2.8,0.7-5.6,1.3-8.3,2
				c-7.1,1.6-14.3,2.6-21.6,3.5c-4.4,0.6-8.9,1-13.4,1.4c-6.1,0.7-12.3,1-18.5,1.4C223.5,72.5,211.9,72.7,199.2,72.7z"/>
			<path class="st1" d="M199.8,71.5c-6.6,0-13.8-0.1-20.9-0.4c-3.7-0.1-7.4-0.2-11.1-0.5c-4-0.3-8-0.5-12.1-0.8
				c-3.4-0.3-6.8-0.5-10.2-0.9c-3.9-0.4-7.7-0.8-11.6-1.3c-4.2-0.5-8.4-1.1-12.6-1.8c-7-1.3-14-2.6-20.6-4.7c-3-1-5.9-2-8.7-3.4
				c-1.6-0.8-3.1-1.7-4.3-2.9c-0.9-0.8-1.6-1.7-2-2.7c-0.6-1.6-0.1-3,1-4.3c0.9-1.1,2.1-2,3.4-2.8c2.4-1.4,5.1-2.5,7.8-3.5
				c6.1-2.3,12.7-3.6,19.2-4.9c5.5-1.1,11.1-1.9,16.7-2.6c4.6-0.6,9.3-1.1,13.9-1.5c4-0.4,8.1-0.6,12.1-1c16-1.2,32-1.5,48.1-1.3
				c6,0,12,0.2,18,0.5c4,0.2,8.1,0.3,12.1,0.6c4.2,0.3,8.4,0.6,12.5,1c4.4,0.4,8.8,0.8,13.2,1.3c5.7,0.7,11.5,1.4,17.1,2.5
				c6.2,1.2,12.4,2.4,18.3,4.2c3.4,1.1,6.7,2.3,9.8,3.9c1.6,0.8,3,1.8,4.2,3c2.3,2.3,2.3,4.8,0,7c-1.2,1.2-2.5,2.1-4.1,3
				c-2.2,1.1-4.5,2-6.8,2.9c-6.1,2.2-12.6,3.6-19.1,4.8c-5.1,1-10.2,1.8-15.4,2.5c-4.5,0.6-9,1.1-13.4,1.5c-5,0.5-9.9,0.9-14.9,1.2
				c-5.3,0.3-10.6,0.7-15.9,0.9C215.9,71.3,208.1,71.5,199.8,71.5z"/>
			<path class="st0" d="M181.2,53.7c0,0.3,0,0.6,0,0.8c0,2,0,4,0,6c0,0.7-0.2,0.9-1.1,0.9c-2.4,0-4.9,0-7.3,0c-0.7,0-1.3,0-1.9,0
				c-2.5,0-5,0-7.5,0c-0.8,0-1.1-0.2-1.3-0.8c-0.3-0.7-0.5-1.4-0.7-2c-0.1-0.3-0.2-0.4-0.6-0.4c-2,0-3.9,0-5.9,0
				c-0.4,0-0.6,0.1-0.7,0.4c-0.2,0.7-0.5,1.3-0.7,2c-0.2,0.7-0.5,0.8-1.4,0.8c-2.4,0-4.8,0-7.1,0c-1.1,0-1.4-0.3-1.3-1.2
				c0-0.2,0.2-0.5,0.3-0.7c2-4.3,4-8.6,6.1-12.9c0.9-1.9,1.8-3.8,2.6-5.7c0.3-0.6,0.5-0.8,1.4-0.8c2.6,0,5.2,0,7.7,0
				c0.9,0,1.2,0.2,1.5,0.8c1.3,2.7,2.5,5.4,3.8,8.1c1.5,3.1,2.9,6.3,4.4,9.4c0.1,0.2,0.2,0.3,0.3,0.6c0.2-0.4,0.1-0.6,0.1-0.9
				c0-5.6,0-11.2,0-16.8c0-0.2,0-0.4,0-0.5c0-0.4,0.3-0.6,0.8-0.7c0.2,0,0.5,0,0.7,0c4.4,0,8.7,0,13.1,0c1.2,0,2.4,0.1,3.7,0.2
				c2.6,0.3,5.6,2.6,5.7,5.1c0,0.7,0,1.5,0,2.2c-0.2,1.7-1.5,3-3.1,4c-0.2,0.1-0.5,0.3-0.8,0.4c2.7,1.9,3.5,4.6,5.4,6.9
				c0.2-0.3,0.1-0.6,0.1-0.9c0-5.5,0-11.1,0-16.6c0-0.2,0-0.4,0-0.5c0-0.5,0.3-0.8,0.9-0.8c2.4,0,4.8,0,7.1,0c0.5,0,0.8,0.2,1,0.5
				c1.5,1.8,3,3.6,4.5,5.4c0.8,0.9,1.6,1.8,2.5,2.7c0-0.2,0-0.5,0-0.7c0-2.3,0-4.6,0-6.8c0-0.8,0.2-1,1.3-1c2.2,0,4.4,0,6.5,0
				c1,0,1.2,0.2,1.2,1c0,6.4,0,12.8,0,19.2c0,0.8-0.2,1-1.3,1c-2.2,0-4.3,0-6.5,0c-0.8,0-1.2-0.2-1.6-0.7c-2.1-2.6-4.3-5.1-6.5-7.7
				c-0.1-0.1-0.1-0.1-0.3-0.2c-0.1,0.2-0.1,0.4-0.1,0.6c0,2.3,0,4.6,0,6.9c0,0.9-0.2,1.1-1.4,1.1c-0.7,0-1.5,0-2.2,0
				c-0.8,0-1.6,0-2.4,0c-0.8,0-1.6,0.1-2.4,0c-0.8-0.1-1.5,0.1-2.3,0.1c-0.8-0.1-1.5,0-2.3,0c-0.8,0-1.6,0-2.4,0c-0.8,0-1.6,0-2.4,0
				c-0.9,0.1-1.3-0.3-1.7-0.8c-1.3-2-2.7-4-4-6C182.6,54.2,182.2,53.7,181.2,53.7z"/>
			<path class="st0" d="M128.3,51.9c-1,2.9-2,5.8-3,8.6c-0.3,0.8-0.4,0.9-1.5,0.9c-2.3,0-4.6,0-6.8,0c-0.9,0-1.1-0.2-1.3-0.8
				c-1.7-6.2-3.4-12.5-5.2-18.7c-0.1-0.3-0.1-0.5-0.1-0.8c0-0.7,0.3-0.9,1.2-0.9c1,0,1.9,0,2.9,0c1.3,0,2.6,0,3.9,0
				c0.9,0,1.2,0.2,1.3,0.9c0.5,2.1,1,4.2,1.4,6.2c0,0.2,0,0.3,0.3,0.4c0.7-2,1.4-4,2.1-5.9c0.1-0.3,0.2-0.6,0.3-0.9
				c0.2-0.5,0.5-0.7,1.2-0.7c2.3,0,4.6,0,6.9,0c0.7,0,1,0.2,1.2,0.7c0.6,1.7,1.2,3.3,1.7,5c0.2,0.6,0.4,1.2,0.7,1.9
				c0.4-0.5,0.4-1,0.5-1.5c0.4-1.8,0.8-3.6,1.3-5.4c0.1-0.5,0.4-0.8,1.1-0.8c2.3,0,4.7,0,7,0c0.7,0,1,0.2,1,0.8
				c0,0.4-0.1,0.7-0.2,1.1c-1.7,6.1-3.4,12.2-5.1,18.4c-0.2,0.8-0.4,0.9-1.4,0.9c-2.3,0-4.6,0-6.8,0c-1,0-1.1-0.1-1.4-0.9
				c-0.9-2.7-1.9-5.4-2.9-8.2C128.6,52.3,128.6,52.1,128.3,51.9z"/>
			<path class="st0" d="M283.5,48.7c1.8,0,3.6,0,5.5,0c1,0,1.2,0.2,1.2,1c0,2.7,0,5.4,0,8.1c0,0.5-0.3,0.8-0.7,1
				c-1,0.6-2.1,1-3.2,1.5c-2.4,1.1-5,1.5-7.7,1.5c-2.1,0.1-4.3,0.1-6.4-0.4c-3.6-0.8-6.2-2.7-7.6-5.4c-1.6-3.3-1.6-6.6-0.1-9.9
				c0.8-1.9,2.6-3.3,4.6-4.5c2-1.2,4.3-1.5,6.7-1.6c2.3-0.1,4.6,0,6.8,0.2c3.4,0.4,6.5,3.1,7.2,5.5c0.3,1-0.1,1.4-1.4,1.6
				c-2,0.3-4,0.6-6,0.8c-1.1,0.1-1.5,0.2-2.2-0.9c-0.6-1-1.7-1.4-3-1.4c-1.4,0.1-2.6,0.6-3.4,1.6c-0.4,0.6-0.7,1.2-0.8,1.8
				c-0.3,1.4-0.2,2.9,0.3,4.3c0.6,1.4,2.3,2.4,4.1,2.3c1.3-0.1,2.6-0.5,3.7-1c0.2-0.1,0.3-0.2,0.2-0.4c-0.1-0.2-0.3-0.2-0.5-0.2
				c-1.1,0-2.2,0-3.4,0c-0.9,0-1.1-0.2-1.1-0.9c0-1.3,0-2.6,0-3.8c0-0.7,0.3-0.9,1.2-0.9C279.8,48.7,281.6,48.7,283.5,48.7z"/>
			<path class="st0" d="M246.1,52.9c0,2.5,0,5,0,7.5c0,0.9-0.2,1.1-1.3,1.1c-2.2,0-4.3,0-6.5,0c-1.1,0-1.3-0.2-1.3-1
				c0-6.4,0-12.8,0-19.2c0-0.9,0.2-1,1.4-1c2.1,0,4.2,0,6.4,0c0.7,0,1.2,0.2,1.5,0.7c2.1,2.5,4.1,4.9,6.2,7.4
				c0.2,0.2,0.4,0.4,0.7,0.8c0-0.4,0-0.7,0-0.9c0-2.3,0-4.6,0-6.8c0-0.8,0.2-1,1.3-1c2.2,0,4.4,0,6.6,0c1,0,1.2,0.2,1.2,1
				c0,6.4,0,12.8,0,19.2c0,0.8-0.2,1-1.2,1c-2.2,0-4.4,0-6.6,0c-0.7,0-1.1-0.3-1.4-0.7c-2.1-2.5-4.3-5-6.4-7.6
				C246.5,53.1,246.5,53,246.1,52.9z"/>
			<path class="st0" d="M224.9,50.8c0-3.1,0-6.3,0-9.4c0-0.9,0.2-1.1,1.4-1.1c2.2,0,4.5,0,6.7,0c0.9,0,1.4,0.2,1.4,1.1
				c0,6.4,0,12.7,0,19.1c0,0.9-0.2,1.1-1.3,1.1c-2.3,0-4.6,0-6.9,0c-1,0-1.3-0.2-1.3-1C224.9,57.2,224.9,54,224.9,50.8z"/>
			<path class="st2" d="M214.4,51.8c0-0.4,0-0.6,0-0.9c0-3.1,0-6.1,0-9.2c0-0.6,0-0.7,0.8-0.7c1.8,0,3.6,0,5.5,0
				c0.8,0,0.8,0,0.8,0.6c0,6.1,0,12.2,0,18.3c0,0.6,0,0.6-0.7,0.6c-1.9,0-3.8,0-5.8,0c-0.4,0-0.7-0.1-1-0.4c-2.7-3.2-5.4-6.3-8-9.5
				c-0.2-0.2-0.3-0.4-0.6-0.6c-0.3,0.2-0.1,0.4-0.1,0.6c0,3.1,0,6.2,0,9.3c0,0.7,0.1,0.6-0.8,0.6c-1.9,0-3.8,0-5.7,0
				c-0.5,0-0.6-0.1-0.6-0.5c0-1.7,0-3.5,0-5.2c0-4.3,0-8.6,0-13c0-0.2,0-0.4,0-0.5c0-0.3,0.1-0.4,0.5-0.4c0.4,0,0.8,0,1.2,0
				c1.6,0,3.1,0,4.7,0c0.5,0,0.8,0.1,1,0.4c2.6,3.1,5.2,6.1,7.8,9.2C213.6,51,213.8,51.4,214.4,51.8z"/>
			<path class="st2" d="M189.1,52c0.1,0,0.1,0.1,0.2,0.1c2,0.5,3.1,1.8,4,3.2c1.1,1.6,2,3.2,3.1,4.7c0.1,0.1,0.2,0.3,0.3,0.5
				c-0.3,0.1-0.5,0.1-0.8,0.1c-2.3,0-4.6,0-6.8,0c-0.7,0-1-0.2-1.3-0.6c-1.1-1.8-2.3-3.5-3.5-5.3c-0.2-0.3-0.5-0.7-0.8-1
				c-0.6-0.7-1.5-1-2.6-1c-0.4,0-0.6,0.1-0.5,0.4c0,0.4,0,0.7,0,1.1c0,1.9,0,3.9,0,5.8c0,0.5,0.1,0.6-0.7,0.6c-2,0-4.1,0-6.1,0
				c-0.7,0-0.7,0-0.7-0.6c0-2.3,0-4.6,0-6.8c0-3.7,0-7.5,0-11.2c0-0.2,0-0.4,0-0.5c0-0.3,0.1-0.4,0.5-0.4c0.2,0,0.4,0,0.6,0
				c4,0,8.1,0,12.1,0c1.4,0,2.8,0.2,4.2,0.4c2.7,0.5,4.5,2.3,4.6,4.5c0.2,2.1-0.7,3.7-2.8,5C191.1,51.6,190.1,51.8,189.1,52z"/>
			<path class="st2" d="M171,60.6c-1.7,0-3.3,0-4.8,0c-0.8,0-1.6,0-2.4,0c-0.5,0-0.8-0.1-0.9-0.5c-0.2-0.7-0.5-1.5-0.8-2.2
				c-0.1-0.3-0.3-0.5-0.8-0.5c-2.4,0-4.9,0-7.3,0c-0.5,0-0.7,0.2-0.8,0.5c-0.3,0.8-0.6,1.5-0.8,2.3c-0.1,0.2-0.2,0.4-0.6,0.4
				c-2.4,0-4.7,0-7.1,0c-0.1-0.3,0.1-0.5,0.2-0.7c2.8-6,5.7-12.1,8.5-18.1c0.3-0.7,0.3-0.7,1.2-0.7c2.1,0,4.3,0,6.4,0
				c0.8,0,0.8,0,1.1,0.6c2.5,5.4,5,10.7,7.5,16.1C170.1,58.7,170.6,59.6,171,60.6z"/>
			<path class="st2" d="M145.4,41.2c-0.4,1.4-0.8,2.8-1.1,4.2c-1.3,4.8-2.6,9.5-3.9,14.3c-0.3,0.9-0.3,0.9-1.5,0.9
				c-1.8,0-3.6,0-5.4,0c-0.8,0-0.8,0-1-0.6c-1.2-3.5-2.4-7-3.6-10.4c-0.1-0.3-0.1-0.6-0.5-1c-0.4,1.2-0.8,2.2-1.1,3.2
				c-0.9,2.7-1.9,5.4-2.8,8.2c-0.2,0.6-0.2,0.6-1,0.6c-1.9,0-3.7,0-5.6,0c-1,0-1.1,0-1.3-0.8c-1-3.7-2-7.4-3-11
				c-0.7-2.5-1.4-4.9-2-7.3c0-0.1-0.1-0.2,0-0.3c0.1-0.1,0.3-0.1,0.5-0.1c2,0,4,0,6,0c0.5,0,0.7,0.1,0.8,0.5
				c0.7,3.2,1.5,6.3,2.2,9.5c0.1,0.2,0,0.5,0.3,0.7c1.1-3.2,2.2-6.3,3.3-9.4c0.4-1.2,0.4-1.2,2-1.2c1.6,0,3.1,0,4.7,0
				c0.8,0,0.8,0,1,0.6c1.1,3.1,2.2,6.3,3.3,9.4c0.1,0.2,0.2,0.4,0.3,0.7c0.4-0.8,0.5-1.6,0.6-2.4c0.6-2.6,1.2-5.1,1.8-7.7
				c0.1-0.3,0.1-0.6,0.7-0.6c2.1,0,4.2,0,6.3,0C145.1,41.1,145.2,41.1,145.4,41.2z"/>
			<path class="st2" d="M283.5,49.5c1.7,0,3.4,0,5.1,0c0.5,0,0.7,0.1,0.7,0.5c0,2.5,0,5,0,7.5c0,0.3-0.2,0.5-0.5,0.7
				c-2.3,1.2-4.7,2.2-7.5,2.6c-3.5,0.5-6.9,0.5-10.2-0.6c-2.6-0.9-4.4-2.4-5.4-4.5c-1.5-3.1-1.6-6.2-0.1-9.3c1.2-2.4,3.4-4,6.4-4.9
				c2.3-0.7,4.6-0.7,7-0.7c0.6,0,1.2,0,1.8,0.1c3.8,0.3,6.6,1.8,7.9,4.7c0.1,0.1,0.1,0.2,0.2,0.4c0.2,0.3,0,0.5-0.4,0.5
				c-1.2,0.2-2.3,0.3-3.5,0.5c-0.9,0.1-1.8,0.2-2.6,0.4c-0.4,0.1-0.6,0-0.8-0.3c-0.2-0.5-0.6-0.9-1.1-1.2c-1.7-1.1-5-0.9-6.5,0.3
				c-1,0.9-1.5,1.9-1.7,3c-0.2,1.3-0.2,2.6,0.1,3.8c0.7,3,3.3,4.1,6.9,3.6c1.2-0.2,2.2-0.6,3.2-1.1c0.3-0.1,0.4-0.3,0.3-0.5
				c0-0.3,0-0.7,0-1c0-0.4-0.2-0.4-0.6-0.4c-1.2,0-2.4,0-3.7,0c-0.7,0-0.7,0-0.7-0.5c0-1,0-2,0-3.1c0-0.4,0.2-0.5,0.7-0.5
				C280.1,49.5,281.8,49.5,283.5,49.5z"/>
			<path class="st2" d="M245.1,50.2c0,0.3,0,0.5,0,0.8c0,3,0,6,0,9c0,0.7,0.1,0.6-0.8,0.6c-1.9,0-3.7,0-5.6,0c-0.7,0-0.7,0-0.7-0.5
				c0-1.1,0-2.2,0-3.3c0-4.9,0-9.9,0-14.8c0-0.9-0.1-0.8,1.1-0.8c1.8,0,3.5,0,5.3,0c0.5,0,0.8,0.1,1,0.4c2.7,3.2,5.5,6.5,8.2,9.7
				c0.1,0.2,0.2,0.4,0.6,0.5c0-0.3,0-0.5,0-0.7c0-3.1,0-6.1,0-9.2c0-0.8-0.1-0.7,1-0.7c1.8,0,3.6,0,5.4,0c0.7,0,0.7,0,0.8,0.6
				c0,1.6,0,3.2,0,4.8c0,4.5,0,9,0,13.4c0,0.7,0.1,0.7-0.8,0.7c-1.9,0-3.8,0-5.7,0c-0.4,0-0.7-0.1-1-0.4c-2.7-3.2-5.4-6.3-8-9.5
				c-0.2-0.2-0.3-0.4-0.5-0.6C245.3,50.2,245.2,50.2,245.1,50.2z"/>
			<path class="st2" d="M225.9,50.8c0-3,0-6,0-9c0-0.7,0-0.7,0.8-0.7c1.9,0,3.9,0,5.8,0c0.9,0,0.8-0.1,0.8,0.6c0,6.1,0,12.2,0,18.4
				c0,0.6,0,0.6-0.7,0.6c-2,0-4.1,0-6.1,0c-0.7,0-0.7,0-0.7-0.6C225.9,57,225.9,53.9,225.9,50.8z"/>
			<path class="st0" d="M180.2,47.1c0-0.5,0-1.1,0-1.6c0-0.2,0-0.3,0.3-0.3c1.6,0,3.2-0.2,4.8,0.1c1.4,0.2,2,1.2,1.7,2.3
				c-0.2,0.7-0.8,1.1-1.7,1.3c-1.6,0.3-3.1,0.2-4.7,0.2c-0.3,0-0.4-0.1-0.4-0.3C180.3,48.2,180.2,47.6,180.2,47.1z"/>
			<path class="st0" d="M160.4,53.2c-1.8,0-3.5,0-5.2,0c0.8-2.3,1.6-4.5,2.7-6.7C158.7,48.7,159.5,50.9,160.4,53.2z"/>
			<path class="st1" d="M183.1,45.9c0.7,0,1.5-0.1,2.2,0.3c0.5,0.3,0.8,0.6,0.6,1c-0.1,0.4-0.4,0.6-0.8,0.7
				c-1.1,0.3-2.3,0.4-3.5,0.3c-0.3,0-0.5-0.1-0.5-0.4c0-0.5,0-1.1,0-1.6c0-0.3,0.1-0.4,0.5-0.4C182.1,45.9,182.6,45.9,183.1,45.9z"
				/>
			<path class="st1" d="M158.9,52.4c-0.9,0-1.6,0-2.4,0c0.4-1,0.7-2,1.1-3.1C158.3,50.4,158.5,51.4,158.9,52.4z"/>
		</g>
	</g>
</g>
<g id="Border">
	<g>
		<path class="st2" d="M368.9,20.3c6.3,0,11.4,5.1,11.4,11.4v146.9c0,6.3-5.1,11.4-11.4,11.4H31.7c-6.3,0-11.4-5.1-11.4-11.4V31.7
			c0-6.3,5.1-11.4,11.4-11.4H368.9 M368.9,11.3H31.7c-11.2,0-20.4,9.1-20.4,20.4v146.9c0,11.2,9.1,20.4,20.4,20.4h337.2
			c11.2,0,20.4-9.1,20.4-20.4V31.7C389.3,20.4,380.2,11.3,368.9,11.3L368.9,11.3z"/>
	</g>
</g>
<g id="Text:_This_Equipment">
	<text transform="matrix(1 0 0 1 56.1368 143.2924)" class="st3 st4">Add Your Text Here</text>
</g>
</svg>
